<?xml version="1.0" encoding="utf-8"?>
<!-- Generator: Adobe Illustrator 24.0.1, SVG Export Plug-In . SVG Version: 6.00 Build 0)  -->
<svg version="1.1" id="Слой_1" xmlns="http://www.w3.org/2000/svg" xmlns:xlink="http://www.w3.org/1999/xlink" x="0px" y="0px"
	 viewBox="0 0 30 30" style="enable-background:new 0 0 30 30;" xml:space="preserve">
<style type="text/css">
	.st0{fill-rule:evenodd;clip-rule:evenodd;fill:#60BE74;}
</style>
<g>
	<g>
		<path class="st0" d="M3.2,7.5L2.1,6.2L6.8,2l0.9,1.1c0.6-0.4,1.2-0.7,1.8-1L8.4,0.8c-0.7-0.9-2-1-2.9-0.3L0.8,4.6
			c-0.9,0.7-1.1,1.9-0.4,2.8l1.7,2.1C2.4,8.8,2.8,8.1,3.2,7.5z M29.2,4.6l-4.7-4.2c-0.9-0.7-2.2-0.5-2.9,0.3l-1.1,1.4
			c0.6,0.3,1.2,0.6,1.8,1L23.2,2l4.7,4.2l-1.1,1.3c0.4,0.6,0.7,1.3,1,1.9l1.7-2.1C30.2,6.5,30.1,5.3,29.2,4.6z M27.8,28.4l-4.2-5
			c2.1-2.2,3.4-5.1,3.4-8.4c0-6.6-5.4-12-12-12S3,8.4,3,15c0,3.3,1.3,6.2,3.4,8.4l-4.2,5l0,0C2.1,28.5,2,28.8,2,29c0,0.6,0.4,1,1,1
			c0.3,0,0.6-0.1,0.8-0.4l0,0l4.1-5c2,1.5,4.4,2.3,7.1,2.3c2.7,0,5.1-0.9,7.1-2.3l4.1,5l0,0c0.2,0.2,0.4,0.4,0.8,0.4
			c0.6,0,1-0.4,1-1C28,28.8,27.9,28.5,27.8,28.4L27.8,28.4z M15,25C9.5,25,5,20.5,5,15C5,9.5,9.3,5,15,5c5.6,0,10,4.5,10,10
			C25,20.5,20.5,25,15,25z M19.3,9.3l-4.9,5.2l-2.8-3c-0.4-0.4-1-0.4-1.4,0c-0.4,0.4-0.4,1.1,0,1.5l3.5,3.7c0.4,0.4,1,0.4,1.4,0
			l5.6-5.9c0.4-0.4,0.4-1.1,0-1.5C20.3,8.9,19.7,8.9,19.3,9.3z"/>
	</g>
</g>
</svg>
