<svg xmlns="http://www.w3.org/2000/svg" viewBox="0 0 40 40"><title>Ресурс 1</title><g id="Слой_2" data-name="Слой 2"><g id="Capa_1" data-name="Capa 1"><g id="_77_Essential_Icons" data-name="77 Essential Icons"><path id="Bar_Graph" data-name="Bar Graph" d="M39,0H29.47a1,1,0,0,0-1,1.05V18.84H21.05V11.58A1,1,0,0,0,20,10.53H10.53a1.06,1.06,0,0,0-1.06,1.05V27.84H1.05a1.06,1.06,0,0,0-1,1.05V39a1,1,0,0,0,1.05,1H39a1,1,0,0,0,1-1V1.05A1,1,0,0,0,39,0ZM9.47,37.89H2.11V30H9.47Zm9.48,0H11.58V12.63H19Zm9.47,0H21.05V21h7.37Zm9.47,0H30.53V2.11h7.36Z" style="fill:#60be74"/></g></g></g></svg>