<svg xmlns="http://www.w3.org/2000/svg" viewBox="0 0 40 40"><title>Ресурс 1</title><g id="Слой_2" data-name="Слой 2"><g id="Слой_1-2" data-name="Слой 1"><path d="M26.67,22.22h2.22a8.89,8.89,0,0,1-17.78,0h2.22a6.67,6.67,0,0,0,13.34,0ZM20,40A20,20,0,1,0,0,20,20,20,0,0,0,20,40Zm0-2.22A17.78,17.78,0,1,0,2.22,20,17.78,17.78,0,0,0,20,37.78Zm-6.67-20a2.23,2.23,0,1,0-2.22-2.22A2.23,2.23,0,0,0,13.33,17.78Zm13.34,0a2.23,2.23,0,1,0-2.23-2.22A2.23,2.23,0,0,0,26.67,17.78Z" style="fill:#60be74;fill-rule:evenodd"/></g></g></svg>