<svg xmlns="http://www.w3.org/2000/svg" viewBox="0 0 39.93 40"><title>Ресурс 1</title><g id="Слой_2" data-name="Слой 2"><g id="Слой_1-2" data-name="Слой 1"><path d="M4.21,10,2.75,8.24,9,2.61l1.23,1.5a17.55,17.55,0,0,1,2.43-1.28L11.15,1A2.85,2.85,0,0,0,7.3.55L1.05,6.18A2.54,2.54,0,0,0,.58,9.85l2.25,2.74A19.24,19.24,0,0,1,4.21,10ZM38.87,6.18,32.63.55A2.85,2.85,0,0,0,28.78,1l-1.5,1.83a18.14,18.14,0,0,1,2.43,1.28l1.23-1.5,6.24,5.63L35.72,10a19.18,19.18,0,0,1,1.37,2.57l2.25-2.74A2.52,2.52,0,0,0,38.87,6.18ZM37,37.81l-5.55-6.66a16,16,0,1,0-22.93,0L2.94,37.81H3A1.32,1.32,0,0,0,4,40a1.33,1.33,0,0,0,1-.49H5l5.52-6.63a15.91,15.91,0,0,0,18.9,0l5.53,6.63h0a1.32,1.32,0,0,0,2.34-.84,1.35,1.35,0,0,0-.32-.85ZM20,33.33A13.33,13.33,0,1,1,33.3,20,13.33,13.33,0,0,1,20,33.33Zm5.77-20.92-6.49,6.9-3.71-3.94a1.24,1.24,0,0,0-1.85,0,1.46,1.46,0,0,0,0,2l4.63,4.92a1.27,1.27,0,0,0,1.86,0l7.41-7.88a1.46,1.46,0,0,0,0-2A1.26,1.26,0,0,0,25.73,12.41Z" style="fill:#60be74;fill-rule:evenodd"/></g></g></svg>